HIERARCHY
ROOT Hips
{
	OFFSET -14.64140 90.27770 -84.91600
	CHANNELS 6 Xposition Yposition Zposition Zrotation Xrotation Yrotation
	JOINT Spine
	{
		OFFSET 0.00000 13.20850 -1.60436
		CHANNELS 3 Zrotation Xrotation Yrotation
		JOINT Spine1
		{
			OFFSET 0.00000 8.61716 0.00000
			CHANNELS 3 Zrotation Xrotation Yrotation
			JOINT Spine2
			{
				OFFSET 0.00000 8.61717 0.00000
				CHANNELS 3 Zrotation Xrotation Yrotation
				JOINT Spine3
				{
					OFFSET 0.00000 8.61717 0.00000
					CHANNELS 3 Zrotation Xrotation Yrotation
					JOINT Neck
					{
						OFFSET 0.00000 11.07920 1.10792
						CHANNELS 3 Zrotation Xrotation Yrotation
						JOINT Neck1
						{
							OFFSET 0.00000 7.08032 0.00000
							CHANNELS 3 Zrotation Xrotation Yrotation
							JOINT Head
							{
								OFFSET 0.00000 7.08031 0.00000
								CHANNELS 3 Zrotation Xrotation Yrotation
								End site
								{
									OFFSET 0.00000 0.00000 0.00000
								}
							}
						}
					}
					JOINT RightShoulder
					{
						OFFSET -0.01000 7.91373 5.19711
						CHANNELS 3 Zrotation Xrotation Yrotation
						JOINT RightArm
						{
							OFFSET -18.41580 0.00000 0.00000
							CHANNELS 3 Zrotation Xrotation Yrotation
							JOINT RightForeArm
							{
								OFFSET -29.11090 0.00000 0.00000
								CHANNELS 3 Zrotation Xrotation Yrotation
								JOINT RightHand
								{
									OFFSET -24.65040 0.00000 0.00000
									CHANNELS 3 Zrotation Xrotation Yrotation
									JOINT RightHandThumb1
									{
										OFFSET -5.35114 -0.85590 3.97906
										CHANNELS 3 Zrotation Xrotation Yrotation
										JOINT RightHandThumb2
										{
											OFFSET -4.52789 0.00000 0.00000
											CHANNELS 3 Zrotation Xrotation Yrotation
											JOINT RightHandThumb3
											{
												OFFSET -2.46976 0.00000 0.00000
												CHANNELS 3 Zrotation Xrotation Yrotation
												End site
												{
													OFFSET 0.00000 0.00000 0.00000
												}
											}
										}
									}
									JOINT RightHandIndex1
									{
										OFFSET -14.26970 0.00000 2.88139
										CHANNELS 3 Zrotation Xrotation Yrotation
										JOINT RightHandIndex2
										{
											OFFSET -5.48836 0.00000 0.00000
											CHANNELS 3 Zrotation Xrotation Yrotation
											JOINT RightHandIndex3
											{
												OFFSET -3.01859 0.00000 0.00000
												CHANNELS 3 Zrotation Xrotation Yrotation
												End site
												{
													OFFSET 0.00000 0.00000 0.00000
												}
											}
										}
									}
									JOINT RightHandMiddle1
									{
										OFFSET -14.26970 0.00000 -0.09147
										CHANNELS 3 Zrotation Xrotation Yrotation
										JOINT RightHandMiddle2
										{
											OFFSET -6.17441 0.00000 0.00000
											CHANNELS 3 Zrotation Xrotation Yrotation
											JOINT RightHandMiddle3
											{
												OFFSET -3.56743 0.00000 0.00000
												CHANNELS 3 Zrotation Xrotation Yrotation
												End site
												{
													OFFSET 0.00000 0.00000 0.00000
												}
											}
										}
									}
									JOINT RightHandRing1
									{
										OFFSET -12.69180 0.00000 -3.06433
										CHANNELS 3 Zrotation Xrotation Yrotation
										JOINT RightHandRing2
										{
											OFFSET -5.62556 0.00000 0.00000
											CHANNELS 3 Zrotation Xrotation Yrotation
											JOINT RightHandRing3
											{
												OFFSET -3.56744 0.00000 0.00000
												CHANNELS 3 Zrotation Xrotation Yrotation
												End site
												{
													OFFSET 0.00000 0.00000 0.00000
												}
											}
										}
									}
									JOINT RightHandPinky1
									{
										OFFSET -11.11390 0.00000 -6.03719
										CHANNELS 3 Zrotation Xrotation Yrotation
										JOINT RightHandPinky2
										{
											OFFSET -4.52789 0.00000 0.00000
											CHANNELS 3 Zrotation Xrotation Yrotation
											JOINT RightHandPinky3
											{
												OFFSET -2.46976 0.00000 0.00000
												CHANNELS 3 Zrotation Xrotation Yrotation
												End site
												{
													OFFSET 0.00000 0.00000 0.00000
												}
											}
										}
									}
								}
							}
						}
					}
					JOINT LeftShoulder
					{
						OFFSET 0.01000 7.91373 5.19711
						CHANNELS 3 Zrotation Xrotation Yrotation
						JOINT LeftArm
						{
							OFFSET 18.41580 0.00000 0.00000
							CHANNELS 3 Zrotation Xrotation Yrotation
							JOINT LeftForeArm
							{
								OFFSET 29.11090 0.00000 0.00000
								CHANNELS 3 Zrotation Xrotation Yrotation
								JOINT LeftHand
								{
									OFFSET 24.65040 0.00000 0.00000
									CHANNELS 3 Zrotation Xrotation Yrotation
									JOINT LeftHandThumb1
									{
										OFFSET 5.35114 -0.85590 3.97906
										CHANNELS 3 Zrotation Xrotation Yrotation
										JOINT LeftHandThumb2
										{
											OFFSET 4.52789 0.00000 0.00000
											CHANNELS 3 Zrotation Xrotation Yrotation
											JOINT LeftHandThumb3
											{
												OFFSET 2.46977 0.00000 0.00000
												CHANNELS 3 Zrotation Xrotation Yrotation
												End site
												{
													OFFSET 0.00000 0.00000 0.00000
												}
											}
										}
									}
									JOINT LeftHandIndex1
									{
										OFFSET 14.26970 0.00000 2.88139
										CHANNELS 3 Zrotation Xrotation Yrotation
										JOINT LeftHandIndex2
										{
											OFFSET 5.48836 0.00000 0.00000
											CHANNELS 3 Zrotation Xrotation Yrotation
											JOINT LeftHandIndex3
											{
												OFFSET 3.01859 0.00000 0.00000
												CHANNELS 3 Zrotation Xrotation Yrotation
												End site
												{
													OFFSET 0.00000 0.00000 0.00000
												}
											}
										}
									}
									JOINT LeftHandMiddle1
									{
										OFFSET 14.26970 0.00000 -0.09147
										CHANNELS 3 Zrotation Xrotation Yrotation
										JOINT LeftHandMiddle2
										{
											OFFSET 6.17440 0.00000 0.00000
											CHANNELS 3 Zrotation Xrotation Yrotation
											JOINT LeftHandMiddle3
											{
												OFFSET 3.56744 0.00000 0.00000
												CHANNELS 3 Zrotation Xrotation Yrotation
												End site
												{
													OFFSET 0.00000 0.00000 0.00000
												}
											}
										}
									}
									JOINT LeftHandRing1
									{
										OFFSET 12.69180 0.00000 -3.06433
										CHANNELS 3 Zrotation Xrotation Yrotation
										JOINT LeftHandRing2
										{
											OFFSET 5.62556 0.00000 0.00000
											CHANNELS 3 Zrotation Xrotation Yrotation
											JOINT LeftHandRing3
											{
												OFFSET 3.56744 0.00000 0.00000
												CHANNELS 3 Zrotation Xrotation Yrotation
												End site
												{
													OFFSET 0.00000 0.00000 0.00000
												}
											}
										}
									}
									JOINT LeftHandPinky1
									{
										OFFSET 11.11390 0.00000 -6.03719
										CHANNELS 3 Zrotation Xrotation Yrotation
										JOINT LeftHandPinky2
										{
											OFFSET 4.52789 0.00000 0.00000
											CHANNELS 3 Zrotation Xrotation Yrotation
											JOINT LeftHandPinky3
											{
												OFFSET 2.46976 0.00000 0.00000
												CHANNELS 3 Zrotation Xrotation Yrotation
												End site
												{
													OFFSET 0.00000 0.00000 0.00000
												}
											}
										}
									}
								}
							}
						}
					}
					JOINT pCube4
					{
						OFFSET 0.00000 10.91090 1.10792
						CHANNELS 3 Zrotation Xrotation Yrotation
						End site
						{
							OFFSET 0.00000 0.00000 0.00000
						}
					}
				}
			}
		}
	}
	JOINT RightUpLeg
	{
		OFFSET -9.98441 0.00000 0.00000
		CHANNELS 3 Zrotation Xrotation Yrotation
		JOINT RightLeg
		{
			OFFSET 0.00000 -42.11790 0.00000
			CHANNELS 3 Zrotation Xrotation Yrotation
			JOINT RightFoot
			{
				OFFSET 0.00000 -45.00020 -0.00001
				CHANNELS 3 Zrotation Xrotation Yrotation
				JOINT RightForeFoot
				{
					OFFSET 0.00000 -3.74820 0.00000
					CHANNELS 3 Zrotation Xrotation Yrotation
					JOINT RightToeBase
					{
						OFFSET 0.00000 0.06325 14.43120
						CHANNELS 3 Zrotation Xrotation Yrotation
						End site
						{
							OFFSET 0.00000 0.00000 0.00000
						}
					}
				}
			}
		}
	}
	JOINT LeftUpLeg
	{
		OFFSET 9.98441 0.00000 0.00000
		CHANNELS 3 Zrotation Xrotation Yrotation
		JOINT LeftLeg
		{
			OFFSET 0.00000 -42.11800 0.00000
			CHANNELS 3 Zrotation Xrotation Yrotation
			JOINT LeftFoot
			{
				OFFSET 0.00000 -45.00070 0.00000
				CHANNELS 3 Zrotation Xrotation Yrotation
				JOINT LeftForeFoot
				{
					OFFSET 0.00000 -3.74824 0.00000
					CHANNELS 3 Zrotation Xrotation Yrotation
					JOINT LeftToeBase
					{
						OFFSET 0.00000 0.06325 14.43110
						CHANNELS 3 Zrotation Xrotation Yrotation
						End site
						{
							OFFSET 0.00000 0.00000 0.00000
						}
					}
				}
			}
		}
	}
}
MOTION
Frames: 4
Frame Time: 0.050000
-0.013713305902991342 -0.0018000651781751066 0.036687174673061464 -0.008836952850260473 -0.006335709110024399 0.049386613080064604 -2.811212855866812 -0.11873748512862731 -0.9858757466593446 -0.2284365771534399 3.8307325617547554 0.23883577307671938 -0.7501614659256833 -2.0738697206124175 -0.09910461999684443 -1.0362994293291752 -1.1312711370687594 -0.5314814366945161 -0.2909444731385153 13.017636197369187 -0.14600114526878927 1.0216521652888055 -0.48381602818344605 -0.21332383963266505 1.1703758013252226 -15.20994811987749 -0.13393750908300572 -0.49151049148284326 0.528929761464342 -13.184671896715104 63.217473005575144 -0.6498434602212877 23.605548173275455 34.11865104711757 7.732195278234316 98.28357841661808 27.48771038719308 -0.057152208756077225 -7.670092381810993 4.5065264873812785 -0.12221468324662234 -1.6065099762528998 0.03364880409601754 0.010249780387254206 -56.23053360582956 -0.03404930890606005 -0.024169330231442063 -56.26679043121165 -38.78806972102361 0.021551853049285166 0.013508923513540041 0.02831766535517838 0.006740054758238951 -0.00210812243035129 0.034352699213698976 0.017850386657479043 -0.020822651926086694 -36.71457400833703 -0.0372774133714172 0.049580422283082654 -0.001671073995173607 0.0303338233751031 -0.024103628976174348 -0.007900097801041794 0.014395279409292723 0.01807305001729668 -19.721818054687557 -0.010553920724710616 0.045464438581170226 0.02038155327451623 -0.04669779405817589 -0.030781547016092013 -0.03398420146364759 0.0028703082189674967 0.04994483037437984 24.075063792165267 -0.016686201239130918 -0.02565803444534861 28.824618309317874 -0.02527566087647138 -0.0055548027517252265 28.88072836101614 -0.023727599040695893 -0.004664696857287369 4.61161831417904 1.2961125442025123 12.266321533586543 -68.03054677996094 25.22688753410984 -26.936271507022443 -24.580726232232443 3.4583189981033975 -97.4480329314749 -28.47107412147295 2.429382298934095 -2.7526660202478146 -0.4967409527227095 0.032035893451441005 -8.149595120109321 0.00901368312234501 0.02055931228235566 44.5859542676548 0.03984875530835113 -0.0119961310556489 44.52920934967226 12.47672971542895 -0.007874802445230644 -0.013981939533816 0.01805907991376506 0.03265580499650172 0.03420232980197423 -0.04970835053203355 0.03692037613395524 0.019428996065949354 11.108448793855539 0.040172358586048895 -0.04160970811980904 0.02191643885405337 -0.03960814253715036 0.0030374549058456504 -0.03962658276737663 -0.007996801428235637 0.019277930339380165 4.7791357685776985 -0.03333254158184956 -0.03494513883701908 -0.010589093696882611 0.03638499678098426 0.01585345246099832 0.019800157038838542 -0.02502407912844894 -0.03708243847183405 -5.642646099396002 -0.023041765363712635 0.04013503967517929 -6.752393686573095 -0.037255968075905775 -0.01512367195592836 -6.769928865283993 -0.02789577353448039 -0.040959702331638294 0.03629200977400209 0.03509611283891503 -0.027452933522270424 8.030640981522613 3.472859018559391 -19.208132846553386 -0.00047458893584315196 10.367363155236449 0.045998586936754654 -5.632529139016507 -15.69344467152984 3.1754309403217666 0.0034264631429821294 0.03234626531107171 0.02215039139852297 0.042872986681394276 4.654286718140438 -0.003557639526815816 12.454262306388028 -8.278945565881347 6.872037966124421 -0.02929424050184015 46.351071262036804 0.03080323338509362 -4.318198834007979 -14.739219990709195 -3.8820498131712133 -0.01041545859420957 -0.00950942561688367 0.0076022111928772396 -0.005090270055158019 -10.707757191737068 0.010838613056669956 
-0.03737068495331022 -0.0036313461003151777 -0.008690333608291377 0.03943199134627863 -0.004377112966469509 -0.03237146114312022 -2.5534385113099654 -0.11277070100597529 -1.0399531730309033 -0.20707846385232537 3.7669788662917 0.20949114653678116 -0.6945727827786136 -2.0209336823895554 -0.11977749491935326 -1.0004758867450145 -1.1935191739781212 -0.5682964105061064 -0.29573606819373666 13.099984495307545 -0.1355458204314522 0.9972505367291344 -0.42585374898846434 -0.054216088960716884 1.2414134603934734 -15.189421550582487 -0.06283888238452896 -0.5378151970948577 0.5677589959236757 -13.35201371497352 64.19919949898338 -0.7618898865309848 22.63251729009331 32.19778151669682 7.798327742746619 98.70252329948894 26.822728605511337 -0.12077752250572892 -7.15781259618247 4.520616458071492 -0.16764172574677014 -1.6001273210275029 3.5091661972827824e-05 -0.04354476559068132 -56.25411880887235 0.03594967925242255 0.013217002340224313 -56.23755629777286 -38.756461082061676 0.031219017885274165 0.039169167728439126 0.027993333038600774 0.009411764079753339 0.0072411103473221305 0.019593555604660945 0.011194227189163372 -0.005379849706748749 -36.67012148441166 0.010823632641625384 -0.012719576756727715 0.025420318716576906 0.044483227672374254 -0.006103528333645463 -0.03332055611546175 0.0011169407384976307 -0.038463627577321496 -19.807027623348553 0.03438801493499272 0.030722761513926344 0.018885510410636786 -0.02528543851642149 0.019079723172801384 0.04008045226393602 -0.02232669539925775 -0.00977335106456733 24.096181986606773 -0.00673707227278218 -0.04317893909988942 28.868223871717852 -0.0476980930438397 0.03809405495564946 28.845885492258216 -0.010132715144364047 -0.032697853220440665 4.7916193599179415 1.3429970177922872 12.29964181162604 -68.7338645079134 24.117311960824605 -27.087208002064532 -23.083673536254025 3.7662565296961494 -97.18407387693829 -27.713955291352 3.4210104219647324 -3.5275732690407486 -0.47680593225853174 0.0613814721953171 -8.157034215882492 -0.015928900559898877 0.00787532549351556 44.589692056227726 -0.004680873793390263 0.015318983715014474 44.568943823183595 12.471567060593038 -0.04280401376062861 0.043165324922114404 0.028699222587381445 0.014545132435420969 0.007943282694700106 -0.01583934338605206 0.04674467350778825 0.030163817315645745 11.064789711200651 0.02756462450235985 -0.01689519435163676 0.0020997645771530303 -0.03349565525814327 -0.026541721776164384 0.009741396590436505 0.018486287381058057 -0.04052036928127624 4.73146658925291 0.02498444114263688 0.011742583303984536 -0.04295462663006733 0.022369764877152937 0.011793937810495191 0.029405378157962677 -0.001385006045690481 -0.027578485441274225 -5.580533122418238 0.027312826772563192 -0.011265383197244757 -6.747475405774275 0.01406010652239342 0.0010804933314734102 -6.6846849617452815 -0.04927966786249588 -0.007097422061493819 -0.03740392030771746 -0.04406874420170655 0.034476692615226595 8.019094053753644 3.510922224433796 -19.257289572627503 0.03334934009874932 10.393954673493743 0.03916662832032107 -5.622712523568 -15.659702612767234 3.2382708178319897 0.006280958479215824 0.0031917011905781716 -0.045705523514332 -0.04996906725985633 4.704159450356511 0.017693881993709644 12.436529323719475 -8.279646095617313 6.850010370430906 0.018564461878045523 46.41738510352917 -0.015189685973886789 -4.307022289173216 -14.744799201946382 -3.8504455716775037 -0.007808987942746028 -0.034741169611464374 0.02856371775770199 0.03230076476670778 -10.703171205012893 0.016813359752816216 
-0.03407480937471704 -0.038908679264771595 0.021660942316277305 0.007162671239459458 0.044957743851830115 -0.009455557473890177 -2.244035570643349 -0.12750309812158647 -1.070196565424848 -0.17638400429548995 3.807899039375214 0.21171053865006 -0.6594752801729193 -2.094475707348396 -0.10068511404634806 -0.996327380042074 -1.2269250642955873 -0.574054399293585 -0.2781934815717102 13.143521279327315 -0.1344269820199 1.0175858103503195 -0.4344591808303838 0.29956047908241185 1.2127193679385484 -15.131467841179758 -0.01703663424802808 -0.5764613414936833 0.6483132969898637 -13.446337043864265 65.28650656945281 -0.26995035748929663 21.68646660614419 31.013918272760044 8.050459176570774 99.21024951128403 26.02357574073024 -0.16340612308050878 -6.684256073565044 4.526588184556861 -0.10390657855031381 -1.5502231940278228 -0.039523716143758346 -0.04420681934215806 -56.20286071244981 0.0033500974331958184 0.00841870827666452 -56.25270392355065 -38.78213332289406 -0.048555126599843554 -0.0034128500504615766 -0.023487911961182415 0.00786157961583243 -0.031287626271110085 -0.00537082252417083 -0.04913764978584453 0.0016880120449424222 -36.68565016135093 -0.04981966983778294 -0.04420811261539603 -0.01644792758448519 0.03340911242777673 0.01278429817101464 4.459595446668461e-05 -0.02559753431636891 0.024250968346755507 -19.733928239398274 -0.03441509945592279 0.0268647691018963 0.03762310465951769 0.04603636706419884 -0.030004780034248286 -0.030851958149644962 -0.022397064177871018 0.0166234369956011 24.065993660939913 0.008395083389636014 0.013366428638561996 28.91279263259338 -0.04026617136593776 -0.03520941533537836 28.90819588494787 0.046765323396356785 -0.011856931683421976 5.15091475958836 1.4116829515150675 12.470146542379622 -69.68924771527156 22.813295798033558 -27.374999981851676 -23.510635095713106 4.539554804197221 -96.74079168852998 -26.873257184690456 4.2715767123650235 -4.029302601074502 -0.4645077933642316 0.08947837542865474 -8.16641637100182 0.03945736670812887 -0.04271418143851398 44.61100354869435 0.002602140324359988 -0.0075994467101681415 44.54519545476603 12.494313306480459 -0.012790326045605298 0.010175288015243124 -0.023821866801169437 0.022616488009080095 -0.012825140258724265 -0.024142678997380627 -0.010890652236385346 -0.002397076185461335 11.095685844698096 0.04699162813928911 0.04544419842838229 0.037839595478572866 0.03727429778579764 0.014385116841894904 0.03708929476576163 0.03982000715867665 0.013252116504032825 4.745231562977046 0.039769702839627045 -0.01944159911276627 -0.04635809452216947 0.00937834937477348 -0.0021412401775378976 -0.0154800858736336 0.01139114106492929 -0.043853591828700626 -5.554455590930807 -0.04279773910889468 -0.016445027712888263 -6.725846662666053 0.03430251093387445 -0.025034699822244367 -6.7110612979983655 -0.009697500932672883 0.005222669365428199 0.022904434695391322 0.009400211383890304 0.005630647348346466 8.039693627848328 3.542322814671349 -19.23760669104673 0.007617962675570333 10.441152233386296 0.00607478718947453 -5.578336211032019 -15.68094364736695 3.2289891478579897 -0.019080062791852415 -0.04307388368559331 -0.03778130855205639 0.019356003838360492 4.656729838829818 0.02105494748165821 12.456932504919093 -8.189157773980098 6.922385512550464 -0.00993947589511791 46.41934197776001 -0.01582984725301635 -4.328093162283435 -14.770358584183809 -3.8699751516141814 0.003737792083903987 -0.034648395482287916 0.04989495654764763 -0.04961480101124056 -10.764081187756227 0.026803877362102005 
-0.002744871242763784 -0.01828158734937568 -0.015654751803341683 0.049707666590705225 -0.020603299845280004 0.040167113480094316 -1.8922112803317106 -0.21813605247247575 -1.0968541400567253 -0.16703470409640017 3.758041548184539 0.26817156139507603 -0.5846407805715721 -2.083786725199744 -0.17210549038278924 -1.0208043380757645 -1.1768494400193374 -0.537929421820341 -0.3818723314510604 13.258858382326624 -0.03200583862363466 1.0963007773408686 -0.3477070221749968 0.5138034162771299 1.165946632791356 -15.031039343229267 0.006209919953155618 -0.8147270555466061 0.6684303340118638 -13.561396873410267 66.19701516136327 0.3763706136855445 21.095342403055255 30.365113818516395 8.243455467766541 99.61421433251206 25.282912679116997 -0.20391852229784324 -6.322675014487824 4.518481351004195 -0.11713895871194789 -1.6325387017035646 0.029849755660505312 0.022948771084100525 -56.253696614397946 0.033451920489542264 -0.04248809097363258 -56.22192679819109 -38.81622895735335 0.03909144327022007 -0.007295626787948927 0.004173392003950966 -0.04893608969922845 -0.0219855456422125 0.032345544786763915 0.007539666975010022 -0.04402252700545185 -36.66196705317389 0.026836355701152354 -0.04597363595619009 0.00460679697434829 -0.020517736135058355 0.017530479562879953 -0.0013677751602172712 0.017016804246564876 0.023792746202947197 -19.7675370472293 0.012705632816284604 0.04405029837954987 0.027567773821653818 0.019573823308078837 -0.00993324940785069 0.044600821997351985 -0.015522445013591438 0.0288898650626032 24.098169730222608 0.031150641560482098 0.029531795485182907 28.851030865344704 -0.015368623052107113 0.03428390685607636 28.858329654997767 0.008998375841852443 -0.04603937145229745 5.585664976140925 1.5536397721074455 12.452418675405962 -70.3913288705298 21.743494135968046 -27.89526526922182 -24.676262709917943 5.2842385629640205 -96.41839940860113 -26.13714002396296 4.71841046833701 -4.24208354116329 -0.49435622306315885 0.0534814312022924 -8.137953672402473 0.0015288426884050306 0.04599568862357875 44.55156437146201 -0.049552666284420045 -0.030689223163665305 44.5986141592382 12.479211267312728 -0.04715657332520522 0.033324216474081854 -0.019675927315114715 0.02148792479433584 -0.005504993226057621 -0.0227253228259808 0.006176955989173776 0.013434665006838502 11.136370709412057 -0.035581164739066015 -0.018220766816736057 -0.011261318291237953 -0.024691911575796987 -0.04610066187933163 -0.015356676243580747 -0.005270932282109398 -0.0017601990269473012 4.776363704275198 -0.024643002923231513 0.029490196009897423 -0.011981383920193168 -0.04113710575030626 0.004207783221717996 0.047239411707367285 -0.0294095077246812 -0.048255617698635345 -5.58666562864888 0.00188631100286988 0.01565454164959184 -6.767333914751482 0.04686184844387601 0.04397249109540466 -6.7142469550908785 0.005033244969181758 -0.022194908362596875 -0.010179758777387039 -0.011384969110476479 0.018279522530904008 8.045466084667849 3.513780822064537 -19.22389308152277 0.04394217732545226 10.407420749108905 -0.020343134612112675 -5.638728031424436 -15.63678242562487 3.2220889442985756 -0.004077090358047912 0.011656141181835208 0.021531795137162642 -0.04086685735432094 4.725813915346245 -0.00895788455081655 12.443544567832848 -8.240433578619077 6.849421217783416 -0.02484126168842486 46.34647260987034 0.04207012505011981 -4.322650016816786 -14.702260083118919 -3.8183696154925766 0.035391483180846124 0.03266560688182039 0.04086045243215437 0.009702346845471808 -10.770648847570051 0.03877529005058851 
